<svg width="24" height="13" viewBox="0 0 24 13" fill="none" xmlns="http://www.w3.org/2000/svg">
<path d="M3.33481 3.8804H10.7152V9.80067H3.33481V3.8804Z" fill="#F3A80C"/>
<path d="M3.33492 0.920258C2.55196 0.920258 1.80107 1.23213 1.24743 1.78726C0.693797 2.34239 0.382767 3.09532 0.382767 3.88039L0.382767 9.80066C0.382767 10.5857 0.693797 11.3387 1.24743 11.8938C1.80107 12.4489 2.55196 12.7608 3.33492 12.7608H18.0957C18.8787 12.7608 19.6296 12.4489 20.1832 11.8938C20.7368 11.3387 21.0479 10.5857 21.0479 9.80066V3.88039C21.0479 3.09532 20.7368 2.34239 20.1832 1.78726C19.6296 1.23213 18.8787 0.920258 18.0957 0.920258H3.33492ZM18.0957 2.40033C18.4872 2.40033 18.8626 2.55626 19.1395 2.83383C19.4163 3.11139 19.5718 3.48785 19.5718 3.88039V9.80066C19.5718 10.1932 19.4163 10.5697 19.1395 10.8472C18.8626 11.1248 18.4872 11.2807 18.0957 11.2807H3.33492C2.94344 11.2807 2.568 11.1248 2.29118 10.8472C2.01436 10.5697 1.85884 10.1932 1.85884 9.80066V3.88039C1.85884 3.48785 2.01436 3.11139 2.29118 2.83383C2.568 2.55626 2.94344 2.40033 3.33492 2.40033H18.0957ZM24 6.84053C24 7.42934 23.7667 7.99403 23.3515 8.41038C22.9363 8.82673 22.3731 9.06063 21.7859 9.06063V4.62043C22.3731 4.62043 22.9363 4.85433 23.3515 5.27068C23.7667 5.68703 24 6.25172 24 6.84053Z" fill="black"/>
</svg>
